<svg xmlns="http://www.w3.org/2000/svg" xmlns:xlink="http://www.w3.org/1999/xlink" width="2560" zoomAndPan="magnify" viewBox="0 0 1920 1079.999946" height="1440" preserveAspectRatio="xMidYMid meet" version="1.0"><defs><g/><clipPath id="ac7255fa22"><path d="M 1305.746094 331.785156 L 1667.972656 331.785156 L 1667.972656 717.285156 L 1305.746094 717.285156 Z M 1305.746094 331.785156 " clip-rule="nonzero"/></clipPath></defs><g clip-path="url(#ac7255fa22)"><path fill="#000000" d="M 1321.441406 635.128906 C 1315.570312 626.773438 1310.351562 617.929688 1305.84375 608.671875 L 1340.992188 608.671875 C 1365.761719 639.714844 1403.921875 659.609375 1446.722656 659.609375 C 1521.386719 659.609375 1581.917969 599.078125 1581.917969 524.414062 C 1581.917969 449.75 1521.386719 389.222656 1446.722656 389.222656 C 1403.882812 389.222656 1365.695312 409.152344 1340.925781 440.246094 L 1305.84375 440.246094 C 1313.660156 424.191406 1323.632812 409.386719 1335.390625 396.207031 L 1351 410.257812 L 1359.367188 400.964844 L 1344.023438 387.148438 C 1358.121094 373.269531 1374.34375 361.539062 1392.167969 352.507812 L 1405.296875 381.992188 L 1416.726562 376.90625 L 1403.507812 347.21875 C 1423.023438 338.875 1444.195312 333.667969 1466.398438 332.214844 L 1466.398438 378.25 L 1478.90625 378.25 L 1478.90625 331.789062 C 1478.992188 331.789062 1479.082031 331.785156 1479.167969 331.785156 C 1499.707031 331.785156 1519.492188 335.011719 1538.054688 340.964844 L 1545.726562 350.292969 L 1523.738281 399.6875 L 1535.164062 404.777344 L 1559.804688 349.433594 C 1573.621094 355.808594 1586.5625 363.765625 1598.378906 373.085938 L 1607.582031 406.417969 L 1567.402344 442.589844 L 1575.769531 451.886719 L 1621.695312 410.539062 L 1615.582031 388.394531 C 1626.707031 399.550781 1636.46875 412.070312 1644.609375 425.667969 C 1645.996094 428.441406 1647.332031 431.246094 1648.601562 434.082031 L 1641.261719 482.839844 L 1589.839844 499.546875 L 1593.703125 511.441406 L 1652.476562 492.34375 L 1657.664062 457.917969 C 1664.257812 478.851562 1667.824219 501.128906 1667.84375 524.234375 L 1640.941406 566.359375 L 1587.171875 560.707031 L 1585.863281 573.144531 L 1647.324219 579.601562 L 1666.390625 549.746094 C 1663.773438 572.710938 1657.648438 594.609375 1648.542969 614.882812 L 1606.683594 642.523438 L 1559.859375 615.488281 L 1553.605469 626.324219 L 1607.125 657.21875 L 1633.523438 639.789062 C 1616.960938 661.925781 1595.742188 680.375 1571.328125 693.695312 L 1544.40625 698.171875 L 1512.625 654.429688 L 1502.507812 661.78125 L 1536.433594 708.476562 C 1518.34375 714.101562 1499.109375 717.132812 1479.167969 717.132812 C 1473.839844 717.132812 1468.566406 716.90625 1463.347656 716.484375 L 1453.636719 670.792969 L 1441.402344 673.394531 L 1450.238281 714.96875 C 1427.390625 711.527344 1405.859375 704.070312 1386.378906 693.347656 L 1393.09375 661.746094 L 1380.859375 659.144531 L 1375.027344 686.585938 C 1357.683594 675.421875 1342.257812 661.546875 1329.324219 645.566406 L 1341.460938 628.855469 L 1331.34375 621.507812 Z M 1445.765625 406.539062 C 1477.28125 406.539062 1505.90625 418.902344 1527.0625 439.046875 C 1509.339844 425.851562 1487.375 418.046875 1463.585938 418.046875 C 1439.082031 418.046875 1416.519531 426.328125 1398.53125 440.246094 L 1363.230469 440.246094 C 1384.5 419.398438 1413.632812 406.539062 1445.765625 406.539062 Z M 1463.585938 630.871094 C 1487.375 630.871094 1509.339844 623.0625 1527.0625 609.871094 C 1505.90625 630.007812 1477.28125 642.375 1445.765625 642.375 C 1413.632812 642.375 1384.5 629.519531 1363.230469 608.671875 L 1398.535156 608.671875 C 1416.519531 622.585938 1439.085938 630.871094 1463.585938 630.871094 " fill-opacity="1" fill-rule="nonzero"/></g><g fill="#000000" fill-opacity="1"><g transform="translate(374.219957, 567.867586)"><g><path d="M 167.015625 0 L 132.328125 0 L 107.859375 -64.40625 L 83.40625 0 L 48.71875 0 L 1.03125 -99.09375 L 43.1875 -99.09375 L 68.0625 -36.140625 L 94.734375 -99.09375 L 121 -99.09375 L 147.671875 -36.140625 L 172.546875 -99.09375 L 214.6875 -99.09375 Z M 167.015625 0 "/></g></g></g><g fill="#000000" fill-opacity="1"><g transform="translate(589.898802, 567.867586)"><g><path d="M 74.96875 2.140625 C 50.46875 2.140625 32.4375 -2.898438 20.875 -12.984375 C 10.644531 -21.921875 5.53125 -34.109375 5.53125 -49.546875 C 5.53125 -64.929688 10.644531 -77.09375 20.875 -86.03125 C 32.4375 -96.113281 50.46875 -101.15625 74.96875 -101.15625 C 99.476562 -101.15625 117.515625 -96.113281 129.078125 -86.03125 C 139.304688 -77.09375 144.421875 -64.929688 144.421875 -49.546875 C 144.421875 -34.109375 139.304688 -21.921875 129.078125 -12.984375 C 117.515625 -2.898438 99.476562 2.140625 74.96875 2.140625 Z M 74.96875 -24.46875 C 85.007812 -24.46875 92.378906 -27.34375 97.078125 -33.09375 C 100.859375 -37.75 102.75 -43.234375 102.75 -49.546875 C 102.75 -55.859375 100.859375 -61.316406 97.078125 -65.921875 C 92.378906 -71.722656 85.007812 -74.625 74.96875 -74.625 C 64.925781 -74.625 57.535156 -71.722656 52.796875 -65.921875 C 49.015625 -61.316406 47.125 -55.859375 47.125 -49.546875 C 47.125 -43.234375 49.015625 -37.75 52.796875 -33.09375 C 57.535156 -27.34375 64.925781 -24.46875 74.96875 -24.46875 Z M 74.96875 -24.46875 "/></g></g></g><g fill="#000000" fill-opacity="1"><g transform="translate(739.810108, 567.867586)"><g><path d="M 146.421875 0 L 107.109375 0 C 105.304688 -2.488281 104.035156 -5.664062 103.296875 -9.53125 C 102.660156 -12.53125 101.695312 -15.46875 100.40625 -18.34375 C 99.113281 -21.226562 96.890625 -23.625 93.734375 -25.53125 C 90.578125 -27.445312 85.890625 -28.472656 79.671875 -28.609375 L 52.65625 -28.609375 L 52.65625 0 L 11.0625 0 L 11.0625 -99.15625 L 78.703125 -99.15625 C 94.867188 -99.15625 107.914062 -97.945312 117.84375 -95.53125 C 127.769531 -93.113281 135.015625 -89.3125 139.578125 -84.125 C 144.140625 -78.945312 146.421875 -72.1875 146.421875 -63.84375 C 146.421875 -56.882812 144.84375 -51.03125 141.6875 -46.28125 C 138.53125 -41.539062 133.546875 -37.789062 126.734375 -35.03125 C 133.316406 -32.3125 137.585938 -29.050781 139.546875 -25.25 C 141.503906 -21.457031 142.710938 -17.28125 143.171875 -12.71875 C 143.628906 -8.664062 144.710938 -4.425781 146.421875 0 Z M 52.65625 -53.0625 L 76.421875 -53.140625 C 83.054688 -53.140625 88.285156 -53.4375 92.109375 -54.03125 C 95.929688 -54.632812 98.75 -55.453125 100.5625 -56.484375 C 102.382812 -57.523438 103.550781 -58.675781 104.0625 -59.9375 C 104.570312 -61.207031 104.828125 -62.507812 104.828125 -63.84375 C 104.828125 -65.1875 104.570312 -66.5 104.0625 -67.78125 C 103.550781 -69.070312 102.382812 -70.234375 100.5625 -71.265625 C 98.75 -72.304688 95.929688 -73.125 92.109375 -73.71875 C 88.285156 -74.320312 83.054688 -74.625 76.421875 -74.625 L 52.65625 -74.625 Z M 52.65625 -53.0625 "/></g></g></g><g fill="#000000" fill-opacity="1"><g transform="translate(891.724857, 567.867586)"><g><path d="M 173.859375 0 L 119.8125 0 L 77.25 -33.171875 L 52.65625 -16.375 L 52.65625 0 L 11.0625 0 L 11.0625 -99.15625 L 52.65625 -99.15625 L 52.65625 -53.28125 L 119.40625 -99.15625 L 173.859375 -99.15625 L 102.8125 -50.65625 Z M 173.859375 0 "/></g></g></g><g fill="#000000" fill-opacity="1"><g transform="translate(1066.575347, 567.867586)"><g><path d="M 65.5 2.140625 C 52.09375 2.140625 41.289062 0.703125 33.09375 -2.171875 C 24.894531 -5.054688 18.65625 -9.019531 14.375 -14.0625 C 10.09375 -19.101562 7.210938 -24.921875 5.734375 -31.515625 L 49.890625 -31.515625 C 53.160156 -26.816406 58.363281 -24.46875 65.5 -24.46875 C 72.644531 -24.46875 77.851562 -26.816406 81.125 -31.515625 C 81.394531 -31.972656 81.53125 -32.382812 81.53125 -32.75 C 81.53125 -34 79.882812 -34.929688 76.59375 -35.546875 C 73.300781 -36.171875 68.382812 -36.644531 61.84375 -36.96875 C 53.59375 -37.332031 44.929688 -38.207031 35.859375 -39.59375 C 15.640625 -42.726562 5.53125 -50.859375 5.53125 -63.984375 C 5.53125 -65.085938 5.597656 -66.265625 5.734375 -67.515625 C 7.210938 -74.097656 10.09375 -79.910156 14.375 -84.953125 C 18.65625 -90.003906 24.894531 -93.96875 33.09375 -96.84375 C 41.289062 -99.71875 52.09375 -101.15625 65.5 -101.15625 C 78.90625 -101.15625 89.707031 -99.71875 97.90625 -96.84375 C 106.113281 -93.96875 112.359375 -90.003906 116.640625 -84.953125 C 120.921875 -79.910156 123.800781 -74.097656 125.28125 -67.515625 L 81.125 -67.515625 C 77.851562 -72.210938 72.644531 -74.5625 65.5 -74.5625 C 58.363281 -74.5625 53.160156 -72.210938 49.890625 -67.515625 C 49.660156 -67.140625 49.546875 -66.789062 49.546875 -66.46875 C 49.546875 -65.363281 51.125 -64.546875 54.28125 -64.015625 C 57.4375 -63.484375 62.085938 -63.035156 68.234375 -62.671875 C 74.378906 -62.304688 80.929688 -61.707031 87.890625 -60.875 C 94.847656 -60.039062 101.351562 -58.597656 107.40625 -56.546875 C 113.46875 -54.503906 118.203125 -51.476562 121.609375 -47.46875 C 124.285156 -44.382812 125.625 -40.46875 125.625 -35.71875 C 125.625 -34.382812 125.507812 -32.984375 125.28125 -31.515625 C 123.800781 -24.921875 120.921875 -19.101562 116.640625 -14.0625 C 112.359375 -9.019531 106.113281 -5.054688 97.90625 -2.171875 C 89.707031 0.703125 78.90625 2.140625 65.5 2.140625 Z M 65.5 2.140625 "/></g></g></g><g fill="#000000" fill-opacity="1"><g transform="translate(1197.695881, 567.867586)"><g><path d="M 146.484375 0 L 104.890625 0 L 104.890625 -40.015625 L 52.65625 -40.015625 L 52.65625 0 L 11.0625 0 L 11.0625 -99.15625 L 52.65625 -99.15625 L 52.65625 -59.078125 L 104.890625 -59.078125 L 104.890625 -99.15625 L 146.484375 -99.15625 Z M 146.484375 0 "/></g></g></g><g fill="#000000" fill-opacity="1"><g transform="translate(1355.206376, 567.867586)"><g><path d="M 52.65625 0 L 11.0625 0 L 11.0625 -99.15625 L 52.65625 -99.15625 Z M 52.65625 0 "/></g></g></g><g fill="#000000" fill-opacity="1"><g transform="translate(1418.901366, 567.867586)"><g><path d="M 52.65625 0 L 11.0625 0 L 11.0625 -99.15625 L 78.703125 -99.15625 C 94.867188 -99.15625 107.914062 -97.945312 117.84375 -95.53125 C 127.769531 -93.113281 135.015625 -89.3125 139.578125 -84.125 C 144.140625 -78.945312 146.421875 -72.1875 146.421875 -63.84375 C 146.421875 -55.550781 144.140625 -48.8125 139.578125 -43.625 C 135.015625 -38.445312 127.769531 -34.648438 117.84375 -32.234375 C 107.914062 -29.816406 94.867188 -28.609375 78.703125 -28.609375 L 52.65625 -28.609375 Z M 52.65625 -53.0625 L 76.421875 -53.140625 C 83.054688 -53.140625 88.285156 -53.40625 92.109375 -53.9375 C 95.929688 -54.46875 98.75 -55.210938 100.5625 -56.171875 C 102.382812 -57.140625 103.550781 -58.28125 104.0625 -59.59375 C 104.570312 -60.90625 104.828125 -62.320312 104.828125 -63.84375 C 104.828125 -65.414062 104.570312 -66.859375 104.0625 -68.171875 C 103.550781 -69.484375 102.382812 -70.617188 100.5625 -71.578125 C 98.75 -72.546875 95.929688 -73.296875 92.109375 -73.828125 C 88.285156 -74.359375 83.054688 -74.625 76.421875 -74.625 L 52.65625 -74.625 Z M 52.65625 -53.0625 "/></g></g></g></svg>