<svg version="1.2" xmlns="http://www.w3.org/2000/svg" viewBox="0 0 2560 1441" width="2560" height="1441">
	<defs>
		<clipPath clipPathUnits="userSpaceOnUse" id="cp1">
			<path d="m1740.99 443.71h482.97v514h-482.97z"/>
		</clipPath>
	</defs>
	<style>
		.s0 { fill: #000000 } 
	</style>
	<g id="Clip-Path" clip-path="url(#cp1)">
		<g>
			<path class="s0" d="m1761.92 848.17c-7.83-11.14-14.78-22.93-20.8-35.27h46.87c33.03 41.39 83.91 67.91 140.97 67.91 99.56 0 180.26-80.71 180.26-180.26 0-99.55-80.7-180.25-180.26-180.25-57.12 0-108.03 26.57-141.06 68.03h-46.78c10.43-21.41 23.72-41.15 39.4-58.72l20.81 18.73 11.16-12.39-20.46-18.42c18.8-18.5 40.43-34.14 64.19-46.19l17.51 39.32 15.24-6.79-17.63-39.58c26.02-11.12 54.25-18.07 83.86-20v61.38h16.67v-61.95q0.18 0 0.35-0.01c27.39 0 53.77 4.31 78.52 12.24l10.23 12.44-29.32 65.86 15.24 6.79 32.85-73.8c18.42 8.5 35.68 19.11 51.43 31.54l12.27 44.44-53.57 48.23 11.16 12.4 61.23-55.13-8.15-29.53c14.83 14.88 27.85 31.57 38.7 49.7q2.78 5.55 5.33 11.22l-9.79 65.01-68.56 22.28 5.15 15.86 78.36-25.47 6.92-45.9c8.79 27.91 13.55 57.62 13.57 88.42l-35.87 56.17-71.69-7.54-1.75 16.59 81.95 8.61 25.42-39.81c-3.49 30.62-11.65 59.82-23.79 86.85l-55.82 36.85-62.43-36.05-8.34 14.45 71.36 41.2 35.2-23.24c-22.08 29.51-50.37 54.11-82.93 71.87l-35.89 5.97-42.38-58.32-13.49 9.8 45.24 62.26c-24.12 7.5-49.77 11.54-76.36 11.54q-10.65-0.01-21.09-0.86l-12.95-60.93-16.31 3.47 11.78 55.44c-30.46-4.59-59.17-14.54-85.14-28.83l8.95-42.14-16.31-3.47-7.78 36.59c-23.13-14.88-43.69-33.38-60.94-54.69l16.18-22.28-13.49-9.8zm165.77-304.79c42.02 0 80.19 16.49 108.4 43.35-23.63-17.6-52.92-28-84.64-28-32.67 0-62.75 11.04-86.74 29.6h-47.07c28.36-27.8 67.21-44.95 110.05-44.95zm23.76 299.11c31.72 0 61.01-10.41 84.64-28-28.21 26.85-66.38 43.34-108.4 43.34-42.84 0-81.69-17.14-110.05-44.94h47.08c23.98 18.56 54.06 29.6 86.73 29.6z"/>
		</g>
	</g>
	<g>
		<g>
			<g>
				<path class="s0" d="m721.65 758.49h-46.25l-32.63-85.87-32.6 85.87h-46.25l-63.59-132.12h56.21l33.17 83.93 35.56-83.93h35.02l35.57 83.93 33.16-83.93h56.19z"/>
			</g>
		</g>
	</g>
	<g>
		<g>
			<g>
				<path class="s0" d="m886.49 761.34q-49 0.01-72.12-20.16-20.46-17.88-20.46-48.75 0-30.77 20.46-48.65 23.12-20.16 72.12-20.16 49.02 0 72.15 20.16 20.45 17.88 20.45 48.65 0 30.87-20.45 48.75-23.13 20.17-72.15 20.16zm0-35.47q20.08 0 29.48-11.5 7.56-9.32 7.56-21.94 0-12.63-7.56-21.84-9.4-11.6-29.48-11.6-20.09 0-29.56 11.6-7.56 9.21-7.56 21.84 0 12.62 7.56 21.94 9.47 11.5 29.56 11.5z"/>
			</g>
		</g>
	</g>
	<g>
		<g>
			<g>
				<path class="s0" d="m1181.64 758.49h-52.41q-3.61-4.98-5.09-12.71-1.27-6-3.85-11.75-2.59-5.77-8.9-9.58-6.31-3.83-18.75-4.11h-36.02v38.15h-55.46v-132.21h90.19q32.33 0 52.19 4.84 19.85 4.83 28.98 15.2 9.12 10.36 9.12 27.05 0 13.91-6.31 23.41-6.31 9.49-19.94 15 13.17 5.44 17.09 13.04 3.91 7.59 4.83 16.71 0.91 8.11 4.33 16.96zm-125.02-70.75l31.69-0.1q13.27 0 20.92-1.19 7.64-1.21 11.27-3.27 3.64-2.08 4.66-4.61 1.02-2.53 1.02-5.2 0-2.69-1.02-5.25-1.02-2.59-4.66-4.65-3.63-2.08-11.27-3.27-7.65-1.21-20.92-1.21h-31.69z"/>
			</g>
		</g>
	</g>
	<g>
		<g>
			<g>
				<path class="s0" d="m1420.78 758.49h-72.06l-56.75-44.23-32.8 22.4v21.83h-55.45v-132.21h55.45v61.17l89-61.17h72.61l-94.73 64.67z"/>
			</g>
		</g>
	</g>
	<g>
		<g>
			<g>
				<path class="s0" d="m1509.43 761.34q-26.81 0-43.2-5.75-16.4-5.76-24.96-15.85-8.57-10.08-11.52-23.27h58.87q6.54 9.4 20.81 9.4 14.29 0 20.84-9.4 0.54-0.91 0.54-1.65 0-2.49-6.58-3.73-6.59-1.24-19.67-1.89-16.5-0.73-34.65-3.5-40.43-6.27-40.43-32.52-0.01-2.21 0.27-4.71 2.95-13.16 11.52-23.25 8.56-10.1 24.96-15.85 16.39-5.75 43.2-5.75 26.81 0 43.21 5.75 16.42 5.75 24.98 15.85 8.56 10.09 11.52 23.25h-58.87q-6.55-9.39-20.84-9.4-14.27 0.01-20.81 9.4-0.46 0.75-0.46 1.4 0 2.2 6.32 3.27 6.31 1.06 18.6 1.79 12.29 0.73 26.21 2.39 13.91 1.67 26.02 5.77 12.12 4.09 18.94 12.11 5.35 6.17 5.35 15.67 0 2.66-0.46 5.6-2.96 13.19-11.52 23.27-8.56 10.09-24.98 15.85-16.4 5.75-43.21 5.75z"/>
			</g>
		</g>
	</g>
	<g>
		<g>
			<g>
				<path class="s0" d="m1792.24 758.49h-55.46v-53.35h-69.64v53.35h-55.46v-132.21h55.46v53.44h69.64v-53.44h55.46z"/>
			</g>
		</g>
	</g>
	<g>
		<g>
			<g>
				<path class="s0" d="m1877.15 758.49h-55.46v-132.21h55.46z"/>
			</g>
		</g>
	</g>
	<g>
		<g>
			<g>
				<path class="s0" d="m1962.08 758.49h-55.46v-132.21h90.19q32.32 0 52.18 4.84 19.86 4.83 28.98 15.2 9.13 10.36 9.13 27.05 0 16.58-9.13 26.95-9.12 10.36-28.98 15.19-19.86 4.84-52.18 4.83h-34.73zm0-70.75l31.68-0.1q13.27 0 20.92-1.06 7.64-1.06 11.27-2.98 3.64-1.94 4.67-4.56 1.02-2.63 1.02-5.67 0-3.14-1.02-5.77-1.03-2.62-4.67-4.54-3.63-1.94-11.27-3-7.65-1.07-20.92-1.07h-31.68z"/>
			</g>
		</g>
	</g>
</svg>